<?xml version="1.0" encoding="UTF-8" standalone="no"?>
<svg
   xmlns:dc="http://purl.org/dc/elements/1.1/"
   xmlns:cc="http://creativecommons.org/ns#"
   xmlns:rdf="http://www.w3.org/1999/02/22-rdf-syntax-ns#"
   xmlns:svg="http://www.w3.org/2000/svg"
   xmlns="http://www.w3.org/2000/svg"
   xmlns:sodipodi="http://sodipodi.sourceforge.net/DTD/sodipodi-0.dtd"
   xmlns:inkscape="http://www.inkscape.org/namespaces/inkscape"
   id="Layer_1"
   data-name="Layer 1"
   viewBox="0 0 283.46 283.46"
   version="1.1"
   sodipodi:docname="LogoODScirculo.svg"
   inkscape:version="0.92.2 (5c3e80d, 2017-08-06)">
  <metadata
     id="metadata29">
    <rdf:RDF>
      <cc:Work
         rdf:about="">
        <dc:format>image/svg+xml</dc:format>
        <dc:type
           rdf:resource="http://purl.org/dc/dcmitype/StillImage" />
        <dc:title>LogoODScirculo</dc:title>
      </cc:Work>
    </rdf:RDF>
  </metadata>
  <sodipodi:namedview
     pagecolor="#ffffff"
     bordercolor="#666666"
     borderopacity="1"
     objecttolerance="10"
     gridtolerance="10"
     guidetolerance="10"
     inkscape:pageopacity="0"
     inkscape:pageshadow="2"
     inkscape:window-width="1920"
     inkscape:window-height="1001"
     id="namedview27"
     showgrid="false"
     inkscape:zoom="0.83256899"
     inkscape:cx="-130.31953"
     inkscape:cy="141.73"
     inkscape:window-x="-9"
     inkscape:window-y="-9"
     inkscape:window-maximized="1"
     inkscape:current-layer="Layer_1" />
  <defs
     id="defs4">
    <style
       id="style2">.cls-1{fill:#63b134;}.cls-2{fill:#e3b535;}.cls-3{fill:#c31b2d;}.cls-4{fill:#4c9c37;}.cls-5{fill:#3e7e45;}.cls-6{fill:#fac00f;}.cls-7{fill:#e6412d;}.cls-8{fill:#f49a2d;}.cls-9{fill:#1594d2;}.cls-10{fill:#a01a42;}.cls-11{fill:#2eb9de;}.cls-12{fill:#eb682f;}.cls-13{fill:#e3233b;}.cls-14{fill:#dc1567;}.cls-15{fill:#18496a;}.cls-16{fill:#c6972c;}.cls-17{fill:#02689c;}</style>
  </defs>
  <title
     id="title6">LogoODScirculo</title>
  <g
     id="_Group_"
     data-name="&lt;Group&gt;">
    <path
       id="_Path_"
       data-name="&lt;Path&gt;"
       class="cls-1"
       d="M87.55,109.55a63.75,63.75,0,0,1,10-13L64.78,60.18A113.53,113.53,0,0,0,44,87.58Z" />
    <path
       id="_Path_2"
       data-name="&lt;Path&gt;"
       class="cls-2"
       d="M167.85,83.86a62.38,62.38,0,0,1,13.73,8.72l32.85-36.31a111.58,111.58,0,0,0-29.11-18.38Z" />
    <path
       id="_Path_3"
       data-name="&lt;Path&gt;"
       class="cls-3"
       d="M243.07,94.8l-43.53,22a64.11,64.11,0,0,1,4.35,15.58l48.43-4.63a112.49,112.49,0,0,0-9.25-32.91" />
    <path
       id="_Path_4"
       data-name="&lt;Path&gt;"
       class="cls-4"
       d="M196.41,110.4l43.53-22A113.18,113.18,0,0,0,219.6,61.09L186.75,97.38a63.76,63.76,0,0,1,9.66,13" />
    <path
       id="_Path_5"
       data-name="&lt;Path&gt;"
       class="cls-5"
       d="M78.89,141.71c0-1,0-2,.08-3l-48.44-4.39c-.15,2.43-.25,4.88-.25,7.35A114.49,114.49,0,0,0,33.58,169L80.37,155.4a64.3,64.3,0,0,1-1.48-13.69" />
    <path
       id="_Path_6"
       data-name="&lt;Path&gt;"
       class="cls-6"
       d="M190.31,182a63.9,63.9,0,0,1-11.81,11.25l25.58,41.91a112.84,112.84,0,0,0,25-23.54Z" />
    <path
       id="_Path_7"
       data-name="&lt;Path&gt;"
       class="cls-7"
       d="M204.57,141.71a63.45,63.45,0,0,1-1.44,13.53l46.78,13.61a114,114,0,0,0,3.27-27.14c0-2.32-.08-4.63-.22-6.92l-48.43,4.63c0,.77,0,1.53,0,2.29" />
    <path
       id="_Path_8"
       data-name="&lt;Path&gt;"
       class="cls-8"
       d="M93.94,183,55.22,212.74A112.83,112.83,0,0,0,80.5,235.93l25.57-41.88A63.58,63.58,0,0,1,93.94,183" />
    <path
       id="_Path_9"
       data-name="&lt;Path&gt;"
       class="cls-9"
       d="M79.68,131.67a63.48,63.48,0,0,1,4.64-15.8L40.8,93.93a113,113,0,0,0-9.61,33.34Z" />
    <path
       id="_Path_10"
       data-name="&lt;Path&gt;"
       class="cls-10"
       d="M198.13,239l-25.54-41.87a61.92,61.92,0,0,1-14.91,6.13l9,48.43A110.2,110.2,0,0,0,198.13,239" />
    <path
       id="_Path_11"
       data-name="&lt;Path&gt;"
       class="cls-11"
       d="M201.27,162.1a64.26,64.26,0,0,1-6.8,14.17l38.84,29.66A113,113,0,0,0,248,175.7Z" />
    <path
       id="_Path_12"
       data-name="&lt;Path&gt;"
       class="cls-12"
       d="M150.8,204.66a62.52,62.52,0,0,1-16.38.23l-9,48.42A110.06,110.06,0,0,0,159.8,253Z" />
    <path
       id="_Path_13"
       data-name="&lt;Path&gt;"
       class="cls-13"
       d="M145.75,78.23a61.6,61.6,0,0,1,15.55,3l17.47-46a109.61,109.61,0,0,0-33-6.32Z" />
    <path
       id="_Path_14"
       data-name="&lt;Path&gt;"
       class="cls-14"
       d="M127.49,203.68a62.07,62.07,0,0,1-15.42-5.91L86.48,239.66a109.94,109.94,0,0,0,32,12.39Z" />
    <path
       id="_Path_15"
       data-name="&lt;Path&gt;"
       class="cls-15"
       d="M122.85,81a61.72,61.72,0,0,1,15.87-2.86V28.94a109.53,109.53,0,0,0-33.46,6.17Z" />
    <path
       id="_Path_16"
       data-name="&lt;Path&gt;"
       class="cls-16"
       d="M89.67,177.29a63.61,63.61,0,0,1-7.41-15L35.51,175.83A112.93,112.93,0,0,0,51,207.08Z" />
    <path
       id="_Path_17"
       data-name="&lt;Path&gt;"
       class="cls-17"
       d="M102.8,91.82a63.33,63.33,0,0,1,13.47-8.26L98.69,37.66A111.08,111.08,0,0,0,70,55.43Z" />
  </g>
</svg>
